# Blender 4.1.1
# www.blender.org
mtllib enban.mtl
o 円柱
v 0.000000 -0.071820 -1.562224
v 0.000000 0.071820 -1.562224
v 0.304775 -0.071820 -1.532206
v 0.304775 0.071820 -1.532206
v 0.597837 -0.071820 -1.443306
v 0.597837 0.071820 -1.443306
v 0.867925 -0.071820 -1.298941
v 0.867925 0.071820 -1.298941
v 1.104659 -0.071820 -1.104659
v 1.104659 0.071820 -1.104659
v 1.298941 -0.071820 -0.867925
v 1.298941 0.071820 -0.867925
v 1.443306 -0.071820 -0.597837
v 1.443306 0.071820 -0.597837
v 1.532206 -0.071820 -0.304775
v 1.532206 0.071820 -0.304775
v 1.562224 -0.071820 0.000000
v 1.562224 0.071820 0.000000
v 1.532206 -0.071820 0.304775
v 1.532206 0.071820 0.304775
v 1.443306 -0.071820 0.597837
v 1.443306 0.071820 0.597837
v 1.298941 -0.071820 0.867925
v 1.298941 0.071820 0.867925
v 1.104659 -0.071820 1.104659
v 1.104659 0.071820 1.104659
v 0.867925 -0.071820 1.298941
v 0.867925 0.071820 1.298941
v 0.597837 -0.071820 1.443306
v 0.597837 0.071820 1.443306
v 0.304775 -0.071820 1.532206
v 0.304775 0.071820 1.532206
v 0.000000 -0.071820 1.562224
v 0.000000 0.071820 1.562224
v -0.304775 -0.071820 1.532206
v -0.304775 0.071820 1.532206
v -0.597837 -0.071820 1.443306
v -0.597837 0.071820 1.443306
v -0.867925 -0.071820 1.298941
v -0.867925 0.071820 1.298941
v -1.104659 -0.071820 1.104659
v -1.104659 0.071820 1.104659
v -1.298941 -0.071820 0.867925
v -1.298941 0.071820 0.867925
v -1.443306 -0.071820 0.597837
v -1.443306 0.071820 0.597837
v -1.532206 -0.071820 0.304775
v -1.532206 0.071820 0.304775
v -1.562224 -0.071820 0.000000
v -1.562224 0.071820 0.000000
v -1.532206 -0.071820 -0.304775
v -1.532206 0.071820 -0.304775
v -1.443306 -0.071820 -0.597837
v -1.443306 0.071820 -0.597837
v -1.298941 -0.071820 -0.867925
v -1.298941 0.071820 -0.867925
v -1.104659 -0.071820 -1.104659
v -1.104659 0.071820 -1.104659
v -0.867925 -0.071820 -1.298941
v -0.867925 0.071820 -1.298941
v -0.597837 -0.071820 -1.443306
v -0.597837 0.071820 -1.443306
v -0.304775 -0.071820 -1.532206
v -0.304775 0.071820 -1.532206
vn 0.0980 -0.0000 -0.9952
vn 0.2903 -0.0000 -0.9569
vn 0.4714 -0.0000 -0.8819
vn 0.6344 -0.0000 -0.7730
vn 0.7730 -0.0000 -0.6344
vn 0.8819 -0.0000 -0.4714
vn 0.9569 -0.0000 -0.2903
vn 0.9952 -0.0000 -0.0980
vn 0.9952 -0.0000 0.0980
vn 0.9569 -0.0000 0.2903
vn 0.8819 -0.0000 0.4714
vn 0.7730 -0.0000 0.6344
vn 0.6344 -0.0000 0.7730
vn 0.4714 -0.0000 0.8819
vn 0.2903 -0.0000 0.9569
vn 0.0980 -0.0000 0.9952
vn -0.0980 -0.0000 0.9952
vn -0.2903 -0.0000 0.9569
vn -0.4714 -0.0000 0.8819
vn -0.6344 -0.0000 0.7730
vn -0.7730 -0.0000 0.6344
vn -0.8819 -0.0000 0.4714
vn -0.9569 -0.0000 0.2903
vn -0.9952 -0.0000 0.0980
vn -0.9952 -0.0000 -0.0980
vn -0.9569 -0.0000 -0.2903
vn -0.8819 -0.0000 -0.4714
vn -0.7730 -0.0000 -0.6344
vn -0.6344 -0.0000 -0.7730
vn -0.4714 -0.0000 -0.8819
vn -0.0000 1.0000 -0.0000
vn -0.2903 -0.0000 -0.9569
vn -0.0980 -0.0000 -0.9952
vn -0.0000 -1.0000 -0.0000
vt 0.007577 0.007577
vt 0.500000 0.007577
vt 0.500000 0.038353
vt 0.007577 0.038353
vt 0.500000 0.069130
vt 0.007577 0.069130
vt 0.500000 0.099906
vt 0.007577 0.099906
vt 0.500000 0.130683
vt 0.007577 0.130683
vt 0.500000 0.161459
vt 0.007577 0.161459
vt 0.500000 0.192235
vt 0.007577 0.192236
vt 0.500000 0.223012
vt 0.007577 0.223012
vt 0.500000 0.253788
vt 0.007577 0.253788
vt 0.500000 0.284565
vt 0.007577 0.284565
vt 0.500000 0.315341
vt 0.007577 0.315341
vt 0.500000 0.346118
vt 0.007577 0.346118
vt 0.500000 0.376894
vt 0.007577 0.376894
vt 0.500000 0.407671
vt 0.007577 0.407671
vt 0.500000 0.438447
vt 0.007577 0.438447
vt 0.500000 0.469223
vt 0.007577 0.469223
vt 0.500000 0.500000
vt 0.007577 0.500000
vt 0.500000 0.530776
vt 0.007577 0.530776
vt 0.500000 0.561553
vt 0.007577 0.561553
vt 0.500000 0.592329
vt 0.007577 0.592329
vt 0.500000 0.623106
vt 0.007577 0.623106
vt 0.500000 0.653882
vt 0.007577 0.653882
vt 0.500000 0.684659
vt 0.007577 0.684659
vt 0.500000 0.715435
vt 0.007577 0.715435
vt 0.500000 0.746212
vt 0.007577 0.746212
vt 0.500000 0.776988
vt 0.007577 0.776988
vt 0.500000 0.807764
vt 0.007577 0.807764
vt 0.500000 0.838541
vt 0.007577 0.838541
vt 0.500000 0.869317
vt 0.007577 0.869317
vt 0.500000 0.900094
vt 0.007577 0.900094
vt 0.500000 0.930870
vt 0.007577 0.930870
vt 0.803493 0.436318
vt 0.835539 0.457731
vt 0.862792 0.484984
vt 0.884204 0.517030
vt 0.898954 0.552637
vt 0.906473 0.590438
vt 0.906473 0.628980
vt 0.898954 0.666781
vt 0.884204 0.702389
vt 0.862792 0.734435
vt 0.835539 0.761688
vt 0.803493 0.783100
vt 0.767885 0.797850
vt 0.730084 0.805369
vt 0.691542 0.805369
vt 0.653741 0.797850
vt 0.618134 0.783100
vt 0.586087 0.761688
vt 0.558834 0.734435
vt 0.537422 0.702389
vt 0.522673 0.666781
vt 0.515154 0.628980
vt 0.515154 0.590438
vt 0.522673 0.552637
vt 0.537422 0.517030
vt 0.558834 0.484983
vt 0.586087 0.457730
vt 0.618134 0.436318
vt 0.653741 0.421569
vt 0.691542 0.414050
vt 0.730084 0.414050
vt 0.767885 0.421569
vt 0.500000 0.961647
vt 0.007577 0.961647
vt 0.500000 0.992423
vt 0.007577 0.992423
vt 0.767885 0.391377
vt 0.803493 0.376628
vt 0.835539 0.355215
vt 0.862792 0.327962
vt 0.884204 0.295916
vt 0.898954 0.260308
vt 0.906473 0.222507
vt 0.906473 0.183966
vt 0.898954 0.146165
vt 0.884204 0.110557
vt 0.862792 0.078511
vt 0.835539 0.051258
vt 0.803493 0.029845
vt 0.767885 0.015096
vt 0.730084 0.007577
vt 0.691542 0.007577
vt 0.653741 0.015096
vt 0.618134 0.029845
vt 0.586087 0.051258
vt 0.558834 0.078511
vt 0.537422 0.110557
vt 0.522673 0.146165
vt 0.515154 0.183966
vt 0.515154 0.222507
vt 0.522673 0.260308
vt 0.537422 0.295916
vt 0.558834 0.327962
vt 0.586087 0.355215
vt 0.618134 0.376628
vt 0.653741 0.391377
vt 0.691542 0.398896
vt 0.730084 0.398896
s 0
usemtl マテリアル.001
f 1/1/1 2/2/1 4/3/1 3/4/1
f 3/4/2 4/3/2 6/5/2 5/6/2
f 5/6/3 6/5/3 8/7/3 7/8/3
f 7/8/4 8/7/4 10/9/4 9/10/4
f 9/10/5 10/9/5 12/11/5 11/12/5
f 11/12/6 12/11/6 14/13/6 13/14/6
f 13/14/7 14/13/7 16/15/7 15/16/7
f 15/16/8 16/15/8 18/17/8 17/18/8
f 17/18/9 18/17/9 20/19/9 19/20/9
f 19/20/10 20/19/10 22/21/10 21/22/10
f 21/22/11 22/21/11 24/23/11 23/24/11
f 23/24/12 24/23/12 26/25/12 25/26/12
f 25/26/13 26/25/13 28/27/13 27/28/13
f 27/28/14 28/27/14 30/29/14 29/30/14
f 29/30/15 30/29/15 32/31/15 31/32/15
f 31/32/16 32/31/16 34/33/16 33/34/16
f 33/34/17 34/33/17 36/35/17 35/36/17
f 35/36/18 36/35/18 38/37/18 37/38/18
f 37/38/19 38/37/19 40/39/19 39/40/19
f 39/40/20 40/39/20 42/41/20 41/42/20
f 41/42/21 42/41/21 44/43/21 43/44/21
f 43/44/22 44/43/22 46/45/22 45/46/22
f 45/46/23 46/45/23 48/47/23 47/48/23
f 47/48/24 48/47/24 50/49/24 49/50/24
f 49/50/25 50/49/25 52/51/25 51/52/25
f 51/52/26 52/51/26 54/53/26 53/54/26
f 53/54/27 54/53/27 56/55/27 55/56/27
f 55/56/28 56/55/28 58/57/28 57/58/28
f 57/58/29 58/57/29 60/59/29 59/60/29
f 59/60/30 60/59/30 62/61/30 61/62/30
f 4/63/31 2/64/31 64/65/31 62/66/31 60/67/31 58/68/31 56/69/31 54/70/31 52/71/31 50/72/31 48/73/31 46/74/31 44/75/31 42/76/31 40/77/31 38/78/31 36/79/31 34/80/31 32/81/31 30/82/31 28/83/31 26/84/31 24/85/31 22/86/31 20/87/31 18/88/31 16/89/31 14/90/31 12/91/31 10/92/31 8/93/31 6/94/31
f 61/62/32 62/61/32 64/95/32 63/96/32
f 63/96/33 64/95/33 2/97/33 1/98/33
f 1/99/34 3/100/34 5/101/34 7/102/34 9/103/34 11/104/34 13/105/34 15/106/34 17/107/34 19/108/34 21/109/34 23/110/34 25/111/34 27/112/34 29/113/34 31/114/34 33/115/34 35/116/34 37/117/34 39/118/34 41/119/34 43/120/34 45/121/34 47/122/34 49/123/34 51/124/34 53/125/34 55/126/34 57/127/34 59/128/34 61/129/34 63/130/34
