# Blender 4.1.1
# www.blender.org
mtllib wireFlame.mtl
o 立方体
v -1.000000 -0.800000 40.799999
v -0.800000 1.000000 40.799999
v -0.800000 -0.800000 9.000000
v -0.800000 0.800000 9.000000
v 1.000000 -0.800000 40.799999
v 1.000000 0.800000 40.799999
v 0.800000 -0.800000 9.000000
v 0.800000 0.800000 9.000000
v -0.800000 1.000000 9.200000
v -1.000000 -0.800000 9.200000
v 1.000000 -0.800000 9.200000
v 1.000000 0.800000 9.200000
v 0.800000 1.000000 9.200000
v 0.800000 -1.000000 9.200000
v 0.800000 -1.000000 40.799999
v 0.800000 1.000000 40.799999
v -1.000000 0.800000 40.799999
v -1.000000 0.800000 9.200000
v 1.000000 1.000000 9.000000
v 0.800000 0.800000 41.000000
v -0.800000 -1.000000 9.200000
v -0.800000 -1.000000 40.799999
v -0.800000 0.800000 41.000000
v -1.000000 1.000000 9.000000
v -1.000000 -1.000000 9.000000
v -0.800000 -0.800000 41.000000
v 1.000000 -1.000000 9.000000
v 0.800000 -0.800000 41.000000
v -1.000000 -1.000000 41.000000
v -1.000000 1.000000 41.000000
v 1.000000 1.000000 41.000000
v 1.000000 -1.000000 41.000000
vn 0.7071 0.7071 -0.0000
vn -0.7071 0.7071 -0.0000
vn -0.7071 -0.7071 -0.0000
vn 0.7071 -0.7071 -0.0000
vn -0.0000 -0.0000 -1.0000
vn 1.0000 -0.0000 -0.0000
vn -0.0000 1.0000 -0.0000
vn -1.0000 -0.0000 -0.0000
vn -0.0000 -1.0000 -0.0000
vn -0.0000 -0.0000 1.0000
vn 0.7071 -0.0000 0.7071
vn -0.0000 0.7071 0.7071
vn -0.7071 -0.0000 0.7071
vn -0.0000 -0.7071 0.7071
vn 0.5774 -0.5773 0.5774
vn 0.5774 0.5773 0.5774
vn -0.5774 0.5773 0.5774
vn -0.5774 -0.5773 0.5774
vn -0.7071 -0.0000 -0.7071
vn -0.0000 -0.7071 -0.7071
vn 0.7071 -0.0000 -0.7071
vn -0.0000 0.7071 -0.7071
vn -0.5773 0.5774 -0.5773
vn 0.5773 0.5774 -0.5773
vn 0.5773 -0.5774 -0.5773
vn -0.5773 -0.5774 -0.5773
vt 0.150000 0.748437
vt 0.400000 0.248437
vt 0.400000 0.001563
vt 0.350000 0.501562
vt 0.400000 0.748437
vt 0.400000 0.501562
vt 0.650000 0.748437
vt 0.600000 0.501562
vt 0.600000 0.748438
vt 0.850000 0.748438
vt 0.600000 0.248437
vt 0.850000 0.501562
vt 0.400000 0.275000
vt 0.625000 0.250000
vt 0.600000 0.275000
vt 0.400000 0.475000
vt 0.375000 0.250000
vt 0.625000 0.500000
vt 0.600000 0.475000
vt 0.375000 0.500000
vt 0.625000 0.750000
vt 0.375000 0.750000
vt 0.875000 0.750000
vt 0.650000 0.501562
vt 0.875000 0.500000
vt 0.375000 0.000000
vt 0.625000 0.000000
vt 0.600000 0.001563
vt 0.125000 0.500000
vt 0.150000 0.501562
vt 0.350000 0.748438
vt 0.125000 0.750000
vt 0.600000 0.975000
vt 0.375000 1.000000
vt 0.400000 0.975000
vt 0.400000 0.775000
vt 0.600000 0.775000
vt 0.625000 1.000000
s 0
f 22/1/1 10/2/1 1/3/1
f 14/4/2 5/5/2 11/6/2
f 16/7/3 12/8/3 6/9/3
f 2/10/4 18/11/4 9/12/4
f 3/13/5 24/14/5 4/15/5
f 7/16/5 25/17/5 3/13/5
f 4/15/5 19/18/5 8/19/5
f 8/19/5 27/20/5 7/16/5
f 11/6/6 19/18/6 12/8/6
f 5/5/6 27/20/6 11/6/6
f 12/8/6 31/21/6 6/9/6
f 6/9/6 32/22/6 5/5/6
f 9/12/7 30/23/7 2/10/7
f 13/24/7 24/25/7 9/12/7
f 16/7/7 19/18/7 13/24/7
f 2/10/7 31/21/7 16/7/7
f 10/2/8 29/26/8 1/3/8
f 1/3/8 30/27/8 17/28/8
f 17/28/8 24/14/8 18/11/8
f 18/11/8 25/17/8 10/2/8
f 22/1/9 25/29/9 21/30/9
f 21/30/9 27/20/9 14/4/9
f 14/4/9 32/22/9 15/31/9
f 15/31/9 29/32/9 22/1/9
f 23/33/10 29/34/10 26/35/10
f 28/36/10 31/21/10 20/37/10
f 26/35/10 32/22/10 28/36/10
f 20/37/10 30/38/10 23/33/10
f 4/15/11 10/2/11 3/13/11
f 21/30/12 7/16/12 3/13/12
f 11/6/13 8/19/13 7/16/13
f 13/24/14 4/15/14 8/19/14
f 9/12/15 18/11/15 4/15/15
f 10/2/16 21/30/16 3/13/16
f 11/6/17 7/16/17 14/4/17
f 12/8/18 13/24/18 8/19/18
f 28/36/19 6/9/19 5/5/19
f 16/7/20 23/33/20 2/10/20
f 23/33/21 1/3/21 17/28/21
f 22/1/22 28/36/22 15/31/22
f 15/31/23 28/36/23 5/5/23
f 22/1/24 1/3/24 26/35/24
f 17/28/25 2/10/25 23/33/25
f 16/7/26 6/9/26 20/37/26
f 22/1/1 21/30/1 10/2/1
f 14/4/2 15/31/2 5/5/2
f 16/7/3 13/24/3 12/8/3
f 2/10/4 17/28/4 18/11/4
f 3/13/5 25/17/5 24/14/5
f 7/16/5 27/20/5 25/17/5
f 4/15/5 24/14/5 19/18/5
f 8/19/5 19/18/5 27/20/5
f 11/6/6 27/20/6 19/18/6
f 5/5/6 32/22/6 27/20/6
f 12/8/6 19/18/6 31/21/6
f 6/9/6 31/21/6 32/22/6
f 9/12/7 24/25/7 30/23/7
f 13/24/7 19/18/7 24/25/7
f 16/7/7 31/21/7 19/18/7
f 2/10/7 30/23/7 31/21/7
f 10/2/8 25/17/8 29/26/8
f 1/3/8 29/26/8 30/27/8
f 17/28/8 30/27/8 24/14/8
f 18/11/8 24/14/8 25/17/8
f 22/1/9 29/32/9 25/29/9
f 21/30/9 25/29/9 27/20/9
f 14/4/9 27/20/9 32/22/9
f 15/31/9 32/22/9 29/32/9
f 23/33/10 30/38/10 29/34/10
f 28/36/10 32/22/10 31/21/10
f 26/35/10 29/34/10 32/22/10
f 20/37/10 31/21/10 30/38/10
f 4/15/11 18/11/11 10/2/11
f 21/30/12 14/4/12 7/16/12
f 11/6/13 12/8/13 8/19/13
f 13/24/14 9/12/14 4/15/14
f 28/36/19 20/37/19 6/9/19
f 16/7/20 20/37/20 23/33/20
f 23/33/21 26/35/21 1/3/21
f 22/1/22 26/35/22 28/36/22
