# Blender 4.1.1
# www.blender.org
mtllib hp_.mtl.mtl
o 立方体.013
v -1.412418 0.587734 -5.652622
v -1.412416 0.663496 -5.639264
v -0.210275 0.587734 -5.652750
v -0.210274 0.663496 -5.639391
v -1.412403 0.564010 -5.518077
v -1.412402 0.639772 -5.504718
v -0.210261 0.564010 -5.518204
v -0.210259 0.639772 -5.504846
vn -0.0001 0.1736 -0.9848
vn 1.0000 -0.0000 -0.0001
vn 0.0001 -0.1736 0.9848
vn -1.0000 -0.0000 0.0001
vn -0.0000 -0.9848 -0.1736
vn -0.0000 0.9848 0.1736
vt 0.252199 0.004398
vt 0.500000 0.004398
vt 0.500000 0.252199
vt 0.252199 0.252199
vt 0.500000 0.500000
vt 0.252199 0.500000
vt 0.500000 0.747801
vt 0.252199 0.747801
vt 0.500000 0.995602
vt 0.252199 0.995602
vt 0.004398 0.500000
vt 0.004398 0.747801
vt 0.747801 0.500000
vt 0.747801 0.747801
s 0
usemtl マテリアル.004
f 1/1/1 2/2/1 4/3/1 3/4/1
f 3/4/2 4/3/2 8/5/2 7/6/2
f 7/6/3 8/5/3 6/7/3 5/8/3
f 5/8/4 6/7/4 2/9/4 1/10/4
f 3/11/5 7/6/5 5/8/5 1/12/5
f 8/5/6 4/13/6 2/14/6 6/7/6
