# Blender 4.1.1
# www.blender.org
mtllib target.mtl
o 平面.001
v -0.050000 0.005000 5.000000
v -0.050000 -0.005000 5.000000
v 0.050000 0.005000 5.000000
v 0.050000 -0.005000 5.000000
v -0.005000 -0.050000 5.000000
v 0.005000 -0.050000 5.000000
v -0.005000 0.050000 5.000000
v 0.005000 0.050000 5.000000
v 0.050000 0.005000 4.950000
v -0.050000 0.005000 4.950000
v -0.050000 -0.005000 4.950000
v 0.050000 -0.005000 4.950000
v -0.005000 0.050000 4.950000
v -0.005000 -0.050000 4.950000
v 0.005000 -0.050000 4.950000
v 0.005000 0.050000 4.950000
v -0.500000 -0.500000 5.000000
v 0.500000 -0.500000 5.000000
v -0.500000 0.500000 5.000000
v 0.500000 0.500000 5.000000
v -0.500000 0.333333 5.000000
v -0.500000 0.166667 5.000000
v -0.500000 -0.000000 5.000000
v -0.500000 -0.166667 5.000000
v -0.500000 -0.333333 5.000000
v 0.500000 -0.333333 5.000000
v 0.500000 -0.166667 5.000000
v 0.500000 0.000000 5.000000
v 0.500000 0.166667 5.000000
v 0.500000 0.333333 5.000000
v -0.333333 -0.500000 5.000000
v -0.166667 -0.500000 5.000000
v 0.000000 -0.500000 5.000000
v 0.166667 -0.500000 5.000000
v 0.333333 -0.500000 5.000000
v 0.333333 0.500000 5.000000
v 0.166667 0.500000 5.000000
v -0.000000 0.500000 5.000000
v -0.166667 0.500000 5.000000
v -0.333333 0.500000 5.000000
v 0.333333 -0.333333 5.000000
v 0.166667 -0.333333 5.000000
v -0.000000 -0.333333 5.000000
v -0.166667 -0.333333 5.000000
v -0.333333 -0.333333 5.000000
v 0.333333 -0.166667 5.000000
v -0.333333 -0.166667 5.000000
v 0.333333 0.000000 5.000000
v -0.333333 -0.000000 5.000000
v 0.333333 0.166667 5.000000
v -0.333333 0.166667 5.000000
v 0.333333 0.333333 5.000000
v 0.166667 0.333333 5.000000
v -0.000000 0.333333 5.000000
v -0.166667 0.333333 5.000000
v -0.333333 0.333333 5.000000
v -0.500000 -0.333333 4.950000
v -0.500000 -0.500000 4.950000
v 0.333333 -0.500000 4.950000
v 0.500000 -0.500000 4.950000
v 0.500000 0.333333 4.950000
v 0.500000 0.500000 4.950000
v -0.333333 0.500000 4.950000
v -0.500000 0.500000 4.950000
v -0.500000 0.333333 4.950000
v -0.500000 0.166667 4.950000
v -0.500000 -0.000000 4.950000
v -0.500000 -0.166667 4.950000
v 0.500000 -0.333333 4.950000
v 0.500000 -0.166667 4.950000
v 0.500000 0.000000 4.950000
v 0.500000 0.166667 4.950000
v -0.333333 -0.333333 4.950000
v -0.333333 -0.166667 4.950000
v -0.333333 -0.000000 4.950000
v -0.333333 0.166667 4.950000
v -0.333333 0.333333 4.950000
v -0.333333 -0.500000 4.950000
v -0.166667 -0.500000 4.950000
v 0.000000 -0.500000 4.950000
v 0.166667 -0.500000 4.950000
v 0.333333 0.500000 4.950000
v 0.166667 0.500000 4.950000
v -0.000000 0.500000 4.950000
v -0.166667 0.500000 4.950000
v 0.333333 -0.333333 4.950000
v 0.166667 -0.333333 4.950000
v -0.000000 -0.333333 4.950000
v -0.166667 -0.333333 4.950000
v 0.333333 -0.166667 4.950000
v 0.333333 0.000000 4.950000
v 0.333333 0.166667 4.950000
v 0.333333 0.333333 4.950000
v 0.166667 0.333333 4.950000
v -0.000000 0.333333 4.950000
v -0.166667 0.333333 4.950000
vn -0.0000 -0.0000 -1.0000
vn -0.0000 -0.0000 1.0000
vn -0.0000 1.0000 -0.0000
vn -0.0000 -1.0000 -0.0000
vn -1.0000 -0.0000 -0.0000
vn 1.0000 -0.0000 -0.0000
vt 0.000000 1.000000
vt 1.000000 0.000000
vt 0.000000 0.000000
vt 1.000000 1.000000
vt 1.000000 0.833333
vt 0.833333 0.833333
vt 0.833333 1.000000
vt 0.833333 0.000000
vt 0.833333 0.166667
vt 1.000000 0.166667
vt 0.833333 0.333333
vt 1.000000 0.333333
vt 0.833333 0.500000
vt 1.000000 0.500000
vt 0.833333 0.666667
vt 1.000000 0.666667
vt 0.166667 0.666667
vt 0.000000 0.666667
vt 0.000000 0.833333
vt 0.166667 0.500000
vt 0.000000 0.500000
vt 0.166667 0.333333
vt 0.000000 0.333333
vt 0.166667 0.166667
vt 0.000000 0.166667
vt 0.166667 0.000000
vt 0.333333 0.166667
vt 0.333333 0.000000
vt 0.500000 0.166667
vt 0.500000 0.000000
vt 0.666667 0.166667
vt 0.666667 0.000000
vt 0.166667 0.833333
vt 0.333333 0.833333
vt 0.166667 1.000000
vt 0.500000 0.833333
vt 0.333333 1.000000
vt 0.666667 0.833333
vt 0.500000 1.000000
vt 0.666667 1.000000
s 0
usemtl マテリアル
f 3/1/1 2/2/1 1/3/1
f 7/1/1 6/2/1 5/3/1
f 11/2/2 9/1/2 10/3/2
f 15/2/2 13/1/2 14/3/2
f 4/4/3 11/2/3 2/2/3
f 1/3/4 9/1/4 3/1/4
f 7/1/4 16/4/4 8/4/4
f 5/3/3 15/2/3 14/3/3
f 3/1/5 12/4/5 4/4/5
f 2/2/6 10/3/6 1/3/6
f 8/4/5 15/2/5 6/2/5
f 5/3/6 13/1/6 7/1/6
f 3/1/1 4/4/1 2/2/1
f 7/1/1 8/4/1 6/2/1
f 11/2/2 12/4/2 9/1/2
f 15/2/2 16/4/2 13/1/2
f 4/4/3 12/4/3 11/2/3
f 1/3/4 10/3/4 9/1/4
f 7/1/4 13/1/4 16/4/4
f 5/3/3 6/2/3 15/2/3
f 3/1/5 9/1/5 12/4/5
f 2/2/6 11/2/6 10/3/6
f 8/4/5 16/4/5 15/2/5
f 5/3/6 14/3/6 13/1/6
f 30/5/1 52/6/1 36/7/1
f 35/8/1 41/9/1 26/10/1
f 26/10/1 41/9/1 46/11/1
f 27/12/1 46/11/1 48/13/1
f 28/14/1 48/13/1 50/15/1
f 29/16/1 50/15/1 52/6/1
f 51/17/1 22/18/1 21/19/1
f 49/20/1 23/21/1 22/18/1
f 47/22/1 24/23/1 23/21/1
f 45/24/1 25/25/1 24/23/1
f 31/26/1 17/3/1 25/25/1
f 31/26/1 45/24/1 44/27/1
f 32/28/1 44/27/1 43/29/1
f 33/30/1 43/29/1 42/31/1
f 34/32/1 42/31/1 41/9/1
f 56/33/1 21/19/1 19/1/1
f 55/34/1 56/33/1 40/35/1
f 54/36/1 55/34/1 39/37/1
f 53/38/1 54/36/1 38/39/1
f 52/6/1 53/38/1 37/40/1
f 30/5/1 36/7/1 20/4/1
f 35/8/1 26/10/1 18/2/1
f 26/10/1 46/11/1 27/12/1
f 27/12/1 48/13/1 28/14/1
f 28/14/1 50/15/1 29/16/1
f 29/16/1 52/6/1 30/5/1
f 51/17/1 21/19/1 56/33/1
f 49/20/1 22/18/1 51/17/1
f 47/22/1 23/21/1 49/20/1
f 45/24/1 24/23/1 47/22/1
f 31/26/1 25/25/1 45/24/1
f 31/26/1 44/27/1 32/28/1
f 32/28/1 43/29/1 33/30/1
f 33/30/1 42/31/1 34/32/1
f 34/32/1 41/9/1 35/8/1
f 56/33/1 19/1/1 40/35/1
f 55/34/1 40/35/1 39/37/1
f 54/36/1 39/37/1 38/39/1
f 53/38/1 38/39/1 37/40/1
f 52/6/1 37/40/1 36/7/1
f 61/5/2 82/7/2 93/6/2
f 59/8/2 69/10/2 86/9/2
f 69/10/2 90/11/2 86/9/2
f 70/12/2 91/13/2 90/11/2
f 71/14/2 92/15/2 91/13/2
f 72/16/2 93/6/2 92/15/2
f 76/17/2 65/19/2 66/18/2
f 75/20/2 66/18/2 67/21/2
f 74/22/2 67/21/2 68/23/2
f 73/24/2 68/23/2 57/25/2
f 78/26/2 57/25/2 58/3/2
f 78/26/2 89/27/2 73/24/2
f 79/28/2 88/29/2 89/27/2
f 80/30/2 87/31/2 88/29/2
f 81/32/2 86/9/2 87/31/2
f 77/33/2 64/1/2 65/19/2
f 96/34/2 63/35/2 77/33/2
f 95/36/2 85/37/2 96/34/2
f 94/38/2 84/39/2 95/36/2
f 93/6/2 83/40/2 94/38/2
f 61/5/2 62/4/2 82/7/2
f 59/8/2 60/2/2 69/10/2
f 69/10/2 70/12/2 90/11/2
f 70/12/2 71/14/2 91/13/2
f 71/14/2 72/16/2 92/15/2
f 72/16/2 61/5/2 93/6/2
f 76/17/2 77/33/2 65/19/2
f 75/20/2 76/17/2 66/18/2
f 74/22/2 75/20/2 67/21/2
f 73/24/2 74/22/2 68/23/2
f 78/26/2 73/24/2 57/25/2
f 78/26/2 79/28/2 89/27/2
f 79/28/2 80/30/2 88/29/2
f 80/30/2 81/32/2 87/31/2
f 81/32/2 59/8/2 86/9/2
f 77/33/2 63/35/2 64/1/2
f 96/34/2 85/37/2 63/35/2
f 95/36/2 84/39/2 85/37/2
f 94/38/2 83/40/2 84/39/2
f 93/6/2 82/7/2 83/40/2
f 32/28/3 33/30/3 80/30/3 79/28/3
f 45/24/5 47/22/5 74/22/5 73/24/5
f 24/23/6 25/25/6 57/25/6 68/23/6
f 33/30/3 34/32/3 81/32/3 80/30/3
f 46/11/6 41/9/6 86/9/6 90/11/6
f 18/2/5 26/10/5 69/10/5 60/2/5
f 34/32/3 35/8/3 59/8/3 81/32/3
f 26/10/5 27/12/5 70/12/5 69/10/5
f 20/4/4 36/7/4 82/7/4 62/4/4
f 27/12/5 28/14/5 71/14/5 70/12/5
f 53/38/3 52/6/3 93/6/3 94/38/3
f 36/7/4 37/40/4 83/40/4 82/7/4
f 28/14/5 29/16/5 72/16/5 71/14/5
f 54/36/3 53/38/3 94/38/3 95/36/3
f 37/40/4 38/39/4 84/39/4 83/40/4
f 29/16/5 30/5/5 61/5/5 72/16/5
f 55/34/3 54/36/3 95/36/3 96/34/3
f 25/25/6 17/3/6 58/3/6 57/25/6
f 38/39/4 39/37/4 85/37/4 84/39/4
f 56/33/3 55/34/3 96/34/3 77/33/3
f 35/8/3 18/2/3 60/2/3 59/8/3
f 39/37/4 40/35/4 63/35/4 85/37/4
f 51/17/5 56/33/5 77/33/5 76/17/5
f 30/5/5 20/4/5 62/4/5 61/5/5
f 52/6/6 50/15/6 92/15/6 93/6/6
f 40/35/4 19/1/4 64/1/4 63/35/4
f 41/9/4 42/31/4 87/31/4 86/9/4
f 49/20/5 51/17/5 76/17/5 75/20/5
f 19/1/6 21/19/6 65/19/6 64/1/6
f 42/31/4 43/29/4 88/29/4 87/31/4
f 50/15/6 48/13/6 91/13/6 92/15/6
f 21/19/6 22/18/6 66/18/6 65/19/6
f 43/29/4 44/27/4 89/27/4 88/29/4
f 17/3/3 31/26/3 78/26/3 58/3/3
f 47/22/5 49/20/5 75/20/5 74/22/5
f 22/18/6 23/21/6 67/21/6 66/18/6
f 44/27/4 45/24/4 73/24/4 89/27/4
f 31/26/3 32/28/3 79/28/3 78/26/3
f 48/13/6 46/11/6 90/11/6 91/13/6
f 23/21/6 24/23/6 68/23/6 67/21/6
