# Blender 4.1.1
# www.blender.org
mtllib star.mtl
o Cube
v 1.000000 1.000000 -1.000000
v 1.000000 -1.000000 -1.000000
v 1.000000 1.000000 1.000000
v 1.000000 -1.000000 1.000000
v -1.000000 1.000000 -1.000000
v -1.000000 -1.000000 -1.000000
v -1.000000 1.000000 1.000000
v -1.000000 -1.000000 1.000000
v -0.902883 -0.686140 -0.319578
v -0.902883 0.686140 -0.319578
v -0.902883 -0.686140 -1.691858
v -0.902883 0.686140 -1.691858
v 0.469397 -0.686140 -0.319578
v 0.469397 0.686140 -0.319578
v 0.469397 -0.686140 -1.691858
v 0.469397 0.686140 -1.691858
v -0.642453 -0.166822 1.328240
v -0.642453 1.389264 1.328240
v -0.642453 -0.166822 -0.227846
v -0.642453 1.389264 -0.227846
v 0.913634 -0.166822 1.328240
v 0.913634 1.389264 1.328240
v 0.913634 -0.166822 -0.227846
v 0.913634 1.389264 -0.227846
v -0.110249 -1.141187 0.746823
v -0.110249 0.126422 0.746823
v -0.110249 -1.141187 -0.520787
v -0.110249 0.126422 -0.520787
v 1.157361 -1.141187 0.746823
v 1.157361 0.126422 0.746823
v 1.157361 -1.141187 -0.520787
v 1.157361 0.126422 -0.520787
v -1.499797 -0.680080 1.149971
v -1.499797 0.319920 1.149971
v -1.499797 -0.680080 0.149971
v -1.499797 0.319920 0.149971
v -0.499797 -0.680080 1.149971
v -0.499797 0.319920 1.149971
v -0.499797 -0.680080 0.149971
v -0.499797 0.319920 0.149971
vn -0.0000 1.0000 -0.0000
vn -0.0000 -0.0000 1.0000
vn -1.0000 -0.0000 -0.0000
vn -0.0000 -1.0000 -0.0000
vn 1.0000 -0.0000 -0.0000
vn -0.0000 -0.0000 -1.0000
vt 0.205797 0.851476
vt 0.868027 0.189246
vt 0.868027 0.851476
vt 0.868027 0.836164
vt 0.205797 0.173934
vt 0.868027 0.173934
vt 0.189246 0.836164
vt 0.851476 0.173934
vt 0.189246 0.173934
vt 0.205797 0.189246
vt 0.851476 0.836164
vt 0.205797 0.836164
vt 0.430866 0.675600
vt 0.885249 0.221217
vt 0.430866 0.221217
vt 0.237954 0.732240
vt 0.692337 0.277858
vt 0.237954 0.277858
vt 0.916499 0.681459
vt 0.462116 0.227077
vt 0.916499 0.227077
vt 0.692337 0.732240
vt 0.739212 0.871577
vt 0.284829 0.417194
vt 0.284829 0.871577
vt 0.318032 0.816889
vt 0.772415 0.362507
vt 0.772415 0.816889
vt 0.080561 0.965055
vt 0.595805 0.449812
vt 0.080561 0.449812
vt 0.324186 0.965055
vt 0.839430 0.449812
vt 0.324186 0.449812
vt 0.595805 0.965055
vt 0.839430 0.965055
vt 0.839430 0.595805
vt 0.324186 0.080561
vt 0.324186 0.595805
vt 0.839430 0.080561
vt 0.273077 0.546909
vt 0.692802 0.127185
vt 0.273077 0.127185
vt 0.500407 0.546909
vt 0.920132 0.127185
vt 0.500407 0.127185
vt 0.692802 0.546909
vt 0.920132 0.546909
vt 0.920132 0.692802
vt 0.500407 0.273077
vt 0.500407 0.692802
vt 0.920132 0.273077
vt 0.139589 0.610979
vt 0.470704 0.279864
vt 0.139589 0.279864
vt 0.040307 0.610979
vt 0.371422 0.279864
vt 0.040307 0.279864
vt 0.470704 0.610979
vt 0.371422 0.610979
vt 0.371422 0.470704
vt 0.040307 0.139589
vt 0.040307 0.470704
vt 0.371422 0.139589
vt 0.885249 0.675600
vt 0.462116 0.681459
vt 0.739212 0.417194
vt 0.318032 0.362507
s 0
usemtl マテリアル
f 5/1/1 3/2/1 1/3/1
f 3/4/2 8/5/2 4/6/2
f 7/7/3 6/8/3 8/9/3
f 2/3/4 8/10/4 6/1/4
f 1/11/5 4/9/5 2/8/5
f 5/12/6 2/6/6 6/5/6
f 10/13/3 11/14/3 9/15/3
f 12/16/6 15/17/6 11/18/6
f 16/19/5 13/20/5 15/21/5
f 14/22/2 9/18/2 13/17/2
f 15/23/4 9/24/4 11/25/4
f 12/26/1 14/27/1 16/28/1
f 18/29/3 19/30/3 17/31/3
f 20/32/6 23/33/6 19/34/6
f 24/35/5 21/31/5 23/30/5
f 22/36/2 17/34/2 21/33/2
f 23/37/4 17/38/4 19/39/4
f 20/39/1 22/40/1 24/37/1
f 26/41/3 27/42/3 25/43/3
f 28/44/6 31/45/6 27/46/6
f 32/47/5 29/43/5 31/42/5
f 30/48/2 25/46/2 29/45/2
f 31/49/4 25/50/4 27/51/4
f 28/51/1 30/52/1 32/49/1
f 34/53/3 35/54/3 33/55/3
f 36/56/6 39/57/6 35/58/6
f 40/59/5 37/55/5 39/54/5
f 38/60/2 33/58/2 37/57/2
f 39/61/4 33/62/4 35/63/4
f 36/63/1 38/64/1 40/61/1
f 5/1/1 7/10/1 3/2/1
f 3/4/2 7/12/2 8/5/2
f 7/7/3 5/11/3 6/8/3
f 2/3/4 4/2/4 8/10/4
f 1/11/5 3/7/5 4/9/5
f 5/12/6 1/4/6 2/6/6
f 10/13/3 12/65/3 11/14/3
f 12/16/6 16/22/6 15/17/6
f 16/19/5 14/66/5 13/20/5
f 14/22/2 10/16/2 9/18/2
f 15/23/4 13/67/4 9/24/4
f 12/26/1 10/68/1 14/27/1
f 18/29/3 20/35/3 19/30/3
f 20/32/6 24/36/6 23/33/6
f 24/35/5 22/29/5 21/31/5
f 22/36/2 18/32/2 17/34/2
f 23/37/4 21/40/4 17/38/4
f 20/39/1 18/38/1 22/40/1
f 26/41/3 28/47/3 27/42/3
f 28/44/6 32/48/6 31/45/6
f 32/47/5 30/41/5 29/43/5
f 30/48/2 26/44/2 25/46/2
f 31/49/4 29/52/4 25/50/4
f 28/51/1 26/50/1 30/52/1
f 34/53/3 36/59/3 35/54/3
f 36/56/6 40/60/6 39/57/6
f 40/59/5 38/53/5 37/55/5
f 38/60/2 34/56/2 33/58/2
f 39/61/4 37/64/4 33/62/4
f 36/63/1 34/62/1 38/64/1
